<svg width="1426" height="889" viewBox="0 0 1426 889" fill="none" xmlns="http://www.w3.org/2000/svg">
<path d="M-14 825L66 819.7C146 814 306 804 466 814.3C626 825 786 857 946 873C1106 889 1266 889 1346 889H1426V793H1346C1266 793 1106 793 946 793C786 793 626 793 466 793C306 793 146 793 66 793H-14V825Z" fill="#EB51C2"/>
<rect x="-14" y="96.0001" width="1440" height="697" fill="#EB51C2"/>
<path d="M1426 64L1346 69.3C1266 75 1106 85 946 74.7C786 64 626 32 466 16C306 0 146 0 66 0H-14V96H66C146 96 306 96 466 96C626 96 786 96 946 96C1106 96 1266 96 1346 96H1426V64Z" fill="#EB51C2"/>
</svg>
